# exported with NifSkope

mtllib basehead.mtl

# Base_Head

g Base_Head
usemtl Material.000001

v 4.21484375 -4.6640625 0.978515625
v 2.205078125 -5.5234375 -1.4892578125
v 3.859375 -3.8203125 -1.638671875
v 4.81640625 -2.990234375 0.77392578125
v 4.56640625 -2.1875 -1.994140625
v 0.0279998779296875 -5.69921875 8.8984375
v 0.0279998779296875 -2.763671875 10.9921875
v -2.923828125 -2.599609375 10.5546875
v 2.7734375 -4.6875 9.125
v 0.0279998779296875 -2.763671875 10.9921875
v 0.0279998779296875 -5.69921875 8.8984375
v 2.978515625 -2.599609375 10.5546875
v -2.68359375 0.287841796875 11.0703125
v -2.923828125 -2.599609375 10.5546875
v 0.0279998779296875 -2.763671875 10.9921875
v -1.74609375 0.3017578125 11.171875
v 0.0279998779296875 0.322998046875 11.3828125
v -2.51171875 2.6640625 10.7890625
v 0.0279998779296875 2.912109375 11.09375
v 2.744140625 0.287841796875 11.0703125
v 2.978515625 -2.599609375 10.5546875
v -3.8046875 -3.8203125 -1.638671875
v -2.150390625 -5.5234375 -1.4892578125
v -4.15625 -4.671875 0.978515625
v 4.72265625 -1.3154296875 -0.4609375
v -5.22265625 2.7421875 5.640625
v -5.5546875 2.1171875 6.875
v -4.89453125 3.21875 7.4375
v -4.60546875 3.6875 6.79296875
v -4.3203125 3.87890625 7.9609375
v -4.20703125 4.4375 7.15234375
v -3.5625 5.16015625 7.5859375
v -4.109375 4.21875 8.9375
v -3.349609375 5.01171875 8.1484375
v -2.888671875 5.8515625 7.671875
v -2.15625 5.87890625 8.515625
v -2.09375 6.34765625 7.76171875
v -1.1494140625 6.7109375 7.8125
v 5.234375 -3.296875 2.802734375
v 4.921875 -1.408203125 1.3056640625
v 2.5546875 -6.6015625 1.2275390625
v 0.0279998779296875 -6.21875 -1.5390625
v 0.0279998779296875 -7.51953125 1.1357421875
v 2.609375 -6.765625 3.611328125
v 0.0279998779296875 -7.03515625 6.3515625
v 2.681640625 -6.41796875 6.1015625
v 5.8046875 -1.3154296875 5.1640625
v 5.484375 -1.53515625 3.328125
v 5.6171875 -0.84765625 3.859375
v -2.5546875 -6.765625 3.611328125
v -2.498046875 -6.6015625 1.2275390625
v 0.0279998779296875 -7.51953125 1.1357421875
v -2.626953125 -6.41796875 6.1015625
v -4.6171875 -4.671875 5.4140625
v 4.66015625 0.251953125 9.6796875
v 5.625 0.251953125 6.99609375
v 4.40625 2.25390625 9.6640625
v 4.51953125 4.1953125 8
v 4.83203125 3.708984375 6.79296875
v 4.26171875 4.4375 7.15234375
v 4.05859375 5.0078125 8.4296875
v 4.11328125 4.10546875 9.40625
v 2.341796875 5.2265625 10.15625
v -0.042999267578125 6.67578125 9.3984375
v -0.14990234375 5.6796875 10.25
v 2.46875 6.32421875 9.046875
v -4.51953125 0.251953125 9.6484375
v -4.6171875 -1.9755859375 9.3203125
v -4.265625 2.25390625 9.640625
v -4.2578125 3.6875 9.6484375
v -2.328125 5.51171875 9.796875
v -2.384765625 5.94140625 9.203125
v 2.568359375 2.6640625 10.7890625
v 4.8671875 3.0546875 7.54296875
v 5.37109375 1.8984375 6.98046875
v 4.76171875 -1.9755859375 9.3359375
v 5.61328125 -1.599609375 6.8203125
v 5.625 0.251953125 6.99609375
v 5.61328125 -1.599609375 6.8203125
v 5.78125 0.125 5.22265625
v 5.57421875 0.095947265625 3.880859375
v 5.37109375 1.8984375 6.98046875
v 4.8671875 3.0546875 7.54296875
v 5.27734375 2.7421875 5.640625
v 5.7109375 1.2451171875 5.03125
v 5.50390625 0.69970703125 3.505859375
v 5.46875 2.0546875 4.2421875
v 0.0279998779296875 -6.21875 -1.5390625
v -4.36328125 -4.92578125 3.14453125
v -5.4921875 -2.904296875 4.58203125
v -5.1796875 -3.296875 2.802734375
v 0.0279998779296875 -7.46875 3.740234375
v 0.0279998779296875 -7.03515625 6.3515625
v -2.732421875 -5.24609375 8.4921875
v -4.6171875 -1.9755859375 9.3203125
v -4.6171875 -3.9765625 7.5078125
v -5.29296875 -3.28125 6.46484375
v -5.5625 -1.6064453125 6.8203125
v -5.75 -1.3154296875 5.1640625
v -5.5703125 0.251953125 6.99609375
v -5.71875 0.125 5.22265625
v 4.84375 -0.89794921875 0.48291015625
v 5.19921875 -1.61328125 2.3984375
v 5.546875 -2.904296875 4.58203125
v 5.328125 -3.28125 6.46484375
v 4.76171875 -1.9755859375 9.3359375
v 4.6875 -3.9765625 7.5078125
v 4.68359375 -4.671875 5.421875
v 4.40625 -4.92578125 3.14453125
v 0.0279998779296875 -7.46875 3.740234375
v -0.042999267578125 6.81640625 9.015625
v 1.2265625 6.765625 7.8125
v 0.0279998779296875 6.80859375 7.8046875
v -5.5703125 0.251953125 6.99609375
v -5.5625 -1.6064453125 6.8203125
v -5.5546875 2.1171875 6.875
v -4.89453125 3.21875 7.4375
v -2.2578125 4.7578125 10.2578125
vt 0.12347412109375 0.3935546875
vt 0.080078125 0.25634765625
vt 0.140380859375 0.267578125
vt 0.1597900390625 0.39794921875
vt 0.18310546875 0.27294921875
vt 0.97705078125 0.6357421875
vt 0.97705078125 0.68701171875
vt 0.921875 0.68701171875
vt 0.07525634765625 0.63623046875
vt 0.0220947265625 0.68701171875
vt 0.0220947265625 0.6357421875
vt 0.0777587890625 0.68701171875
vt 0.55615234375 0.92730712890625
vt 0.55615234375 0.9835052490234375
vt 0.499755859375 0.9835052490234375
vt 0.5361328125 0.92730712890625
vt 0.499755859375 0.92724609375
vt 0.55615234375 0.8885498046875
vt 0.5 0.889404296875
vt 0.443359375 0.92730712890625
vt 0.443359375 0.9835052490234375
vt 0.859375 0.267578125
vt 0.9189453125 0.25634765625
vt 0.8759765625 0.3935546875
vt 0.2000732421875 0.353515625
vt 0.7197265625 0.69189453125
vt 0.736328125 0.75341796875
vt 0.70068359375 0.7802734375
vt 0.685546875 0.7532958984375
vt 0.66552734375 0.8052978515625
vt 0.65625 0.77880859375
vt 0.6201171875 0.7926025390625
vt 0.615234375 0.8431396484375
vt 0.60888671875 0.8118896484375
vt 0.5908203125 0.8004150390625
vt 0.56298828125 0.82177734375
vt 0.5634765625 0.8060302734375
vt 0.53125 0.80859375
vt 0.1529541015625 0.490234375
vt 0.1917724609375 0.4365234375
vt 0.07366943359375 0.39306640625
vt 0.0220947265625 0.24755859375
vt 0.0220947265625 0.392578125
vt 0.0718994140625 0.49072265625
vt 0.0220947265625 0.572021484375
vt 0.070068359375 0.571533203125
vt 0.190185546875 0.616943359375
vt 0.182861328125 0.5234375
vt 0.1959228515625 0.552734375
vt 0.92724609375 0.49072265625
vt 0.92626953125 0.39306640625
vt 0.97705078125 0.392578125
vt 0.9296875 0.571533203125
vt 0.87646484375 0.575439453125
vt 0.386962890625 0.9278564453125
vt 0.333984375 0.9266357421875
vt 0.3876953125 0.8851318359375
vt 0.333984375 0.805908203125
vt 0.3134765625 0.7532958984375
vt 0.3427734375 0.7791748046875
vt 0.3798828125 0.82177734375
vt 0.385498046875 0.845703125
vt 0.439697265625 0.8514404296875
vt 0.5 0.8380126953125
vt 0.5 0.8529052734375
vt 0.4375 0.8304443359375
vt 0.611328125 0.9276123046875
vt 0.61328125 0.9835052490234375
vt 0.611328125 0.8834228515625
vt 0.6142578125 0.8546142578125
vt 0.56005859375 0.8505859375
vt 0.560546875 0.84375
vt 0.44287109375 0.8890380859375
vt 0.33447265625 0.843017578125
vt 0.33447265625 0.87603759765625
vt 0.386474609375 0.9835052490234375
vt 0.333984375 0.9835052490234375
vt 0.2222900390625 0.724609375
vt 0.169677734375 0.68701171875
vt 0.21875 0.638427734375
vt 0.2117919921875 0.564208984375
vt 0.2626953125 0.75341796875
vt 0.298583984375 0.7802734375
vt 0.279296875 0.69189453125
vt 0.2432861328125 0.64453125
vt 0.227294921875 0.56640625
vt 0.259765625 0.614013671875
vt 0.97705078125 0.24755859375
vt 0.8798828125 0.48974609375
vt 0.83984375 0.56640625
vt 0.8466796875 0.490234375
vt 0.97705078125 0.48974609375
vt 0.97705078125 0.572021484375
vt 0.923828125 0.63623046875
vt 0.86865234375 0.68701171875
vt 0.873046875 0.6416015625
vt 0.85205078125 0.63330078125
vt 0.830078125 0.68701171875
vt 0.8095703125 0.616943359375
vt 0.77685546875 0.724609375
vt 0.78076171875 0.638427734375
vt 0.2073974609375 0.41162109375
vt 0.186767578125 0.48291015625
vt 0.1593017578125 0.56640625
vt 0.1470947265625 0.63330078125
vt 0.130859375 0.68701171875
vt 0.1260986328125 0.6416015625
vt 0.1231689453125 0.575439453125
vt 0.12005615234375 0.48974609375
vt 0.0220947265625 0.48974609375
vt 0.5 0.8314208984375
vt 0.4677734375 0.80859375
vt 0.5 0.809814453125
vt 0.6650390625 0.9266357421875
vt 0.6650390625 0.9835052490234375
vt 0.6650390625 0.875244140625
vt 0.6650390625 0.8419189453125
vt 0.55859375 0.8671875
vn 0.78823530673980713 -0.56078433990478516 -0.25490197539329529
vn 0.56862747669219971 -0.74901962280273438 -0.35686275362968445
vn 0.81960785388946533 -0.51372551918029785 -0.26274511218070984
vn 0.9529411792755127 -0.22352941334247589 -0.19215686619281769
vn 0.9529411792755127 -0.25490197539329529 -0.16078431904315948
vn 0.011764706112444401 -0.74117648601531982 0.67058825492858887
vn 0.0039215688593685627 -0.37254902720451355 0.92941176891326904
vn -0.364705890417099 -0.40392157435417175 0.84313726425170898
vn 0.43529412150382996 -0.67843139171600342 0.60000002384185791
vn 0.14509804546833038 -0.56862747669219971 0.80392158031463623
vn 0.011764706112444401 -0.74117648601531982 0.67058825492858887
vn 0.34117648005485535 -0.27058824896812439 0.89803922176361084
vn -0.37254902720451355 -0.050980392843484879 0.92941176891326904
vn -0.364705890417099 -0.40392157435417175 0.84313726425170898
vn -0.035294119268655777 -0.13725490868091583 0.99215686321258545
vn -0.11372549086809158 -0.019607843831181526 0.99215686321258545
vn 0.027450980618596077 -0.027450980618596077 1
vn -0.30196079611778259 0.16862745583057404 0.93725490570068359
vn 0.019607843831181526 0.19215686619281769 0.9843137264251709
vn 0.3333333432674408 0.019607843831181526 0.94509804248809814
vn 0.34117648005485535 -0.27058824896812439 0.89803922176361084
vn -0.67058825492858887 -0.67843139171600342 -0.30980393290519714
vn -0.56078433990478516 -0.74901962280273438 -0.35686275362968445
vn -0.70196080207824707 -0.65490198135375977 -0.27843138575553894
vn 0.99215686321258545 -0.019607843831181526 -0.10588235408067703
vn -0.85098040103912354 0.5215686559677124 0.019607843831181526
vn -0.94509804248809814 0.16862745583057404 0.29411765933036804
vn -0.91372549533843994 0.35686275362968445 0.20000000298023224
vn -0.85098040103912354 0.5215686559677124 0.074509806931018829
vn -0.79607844352722168 0.59215688705444336 0.12941177189350128
vn -0.85098040103912354 0.48235294222831726 0.21568627655506134
vn -0.74117648601531982 0.56862747669219971 0.35686275362968445
vn -0.73333334922790527 0.67058825492858887 0.14509804546833038
vn -0.68627452850341797 0.67843139171600342 0.26274511218070984
vn -0.59215688705444336 0.66274511814117432 0.45882353186607361
vn -0.63137257099151611 0.76470589637756348 0.13725490868091583
vn -0.42745098471641541 0.78823530673980713 0.45098039507865906
vn -0.34117648005485535 0.92941176891326904 0.13725490868091583
vn 0.9529411792755127 -0.25490197539329529 -0.17647059261798859
vn 0.9843137264251709 -0.019607843831181526 -0.17647059261798859
vn 0.5215686559677124 -0.81176471710205078 -0.26274511218070984
vn 0.0039215688593685627 -0.90588235855102539 -0.41960784792900085
vn 0.0039215688593685627 -0.9843137264251709 -0.18431372940540314
vn 0.42745098471641541 -0.90588235855102539 0.043137256056070328
vn 0.0039215688593685627 -0.9529411792755127 0.31764706969261169
vn 0.48235294222831726 -0.82745099067687988 0.28627452254295349
vn 1 -0.08235294371843338 0.011764706112444401
vn 0.97647058963775635 -0.08235294371843338 -0.18431372940540314
vn 0.99215686321258545 0.0039215688593685627 -0.14509804546833038
vn -0.49803921580314636 -0.86666667461395264 0.019607843831181526
vn -0.5215686559677124 -0.81176471710205078 -0.26274511218070984
vn 0.0039215688593685627 -0.9843137264251709 -0.18431372940540314
vn -0.46666666865348816 -0.85882353782653809 0.23137255012989044
vn -0.77254903316497803 -0.63137257099151611 0.074509806931018829
vn 0.77254903316497803 -0.0039215688593685627 0.63921570777893066
vn 0.96078431606292725 0.050980392843484879 0.26274511218070984
vn 0.77254903316497803 0.17647059261798859 0.60784316062927246
vn 0.92156863212585449 0.35686275362968445 0.15294118225574493
vn 0.92941176891326904 0.34117648005485535 0.12156862765550613
vn 0.81176471710205078 0.58431375026702881 -0.08235294371843338
vn 0.89019608497619629 0.44313725829124451 0.12156862765550613
vn 0.78823530673980713 0.30980393290519714 0.5372549295425415
vn 0.34117648005485535 0.4117647111415863 0.84313726425170898
vn 0.0039215688593685627 0.73333334922790527 0.67843139171600342
vn -0.011764706112444401 0.364705890417099 0.92941176891326904
vn 0.3333333432674408 0.78823530673980713 0.5215686559677124
vn -0.74901962280273438 0.019607843831181526 0.66274511814117432
vn -0.81176471710205078 -0.27058824896812439 0.51372551918029785
vn -0.85098040103912354 0.098039217293262482 0.5215686559677124
vn -0.69411766529083252 0.28627452254295349 0.66274511814117432
vn -0.4117647111415863 0.62352943420410156 0.66274511814117432
vn -0.49803921580314636 0.83529412746429443 0.22352941334247589
vn 0.27843138575553894 0.22352941334247589 0.93725490570068359
vn 0.93725490570068359 0.22352941334247589 0.26274511218070984
vn 0.96078431606292725 0.20000000298023224 0.20000000298023224
vn 0.82745099067687988 -0.26274511218070984 0.49803921580314636
vn 0.9686274528503418 -0.11372549086809158 0.22352941334247589
vn 0.96078431606292725 0.050980392843484879 0.26274511218070984
vn 0.9686274528503418 -0.15294118225574493 0.17647059261798859
vn 1 0.066666670143604279 -0.0039215688593685627
vn 0.9843137264251709 0.035294119268655777 -0.15294118225574493
vn 0.96078431606292725 0.20000000298023224 0.20000000298023224
vn 0.93725490570068359 0.22352941334247589 0.26274511218070984
vn 0.96078431606292725 0.27058824896812439 0.074509806931018829
vn 0.9843137264251709 0.16078431904315948 -0.0039215688593685627
vn 0.9843137264251709 0.066666670143604279 -0.16078431904315948
vn 0.97647058963775635 0.20000000298023224 -0.090196080505847931
vn 0.0039215688593685627 -0.90588235855102539 -0.41960784792900085
vn -0.78039216995239258 -0.62352943420410156 -0.066666670143604279
vn -0.92156863212585449 -0.3960784375667572 -0.011764706112444401
vn -0.89019608497619629 -0.45882353186607361 -0.058823529630899429
vn -0.050980392843484879 -0.99215686321258545 0.098039217293262482
vn 0.0039215688593685627 -0.9529411792755127 0.31764706969261169
vn -0.42745098471641541 -0.70980393886566162 0.55294120311737061
vn -0.81176471710205078 -0.27058824896812439 0.51372551918029785
vn -0.72549021244049072 -0.59215688705444336 0.35686275362968445
vn -0.93725490570068359 -0.30980393290519714 0.18431372940540314
vn -0.9686274528503418 -0.14509804546833038 0.19215686619281769
vn -0.99215686321258545 -0.090196080505847931 0.08235294371843338
vn -0.9529411792755127 0.019607843831181526 0.30196079611778259
vn -1 0.011764706112444401 0.08235294371843338
vn 0.99215686321258545 -0.027450980618596077 -0.11372549086809158
vn 0.96078431606292725 -0.043137256056070328 -0.27058824896812439
vn 0.94509804248809814 -0.31764706969261169 -0.050980392843484879
vn 0.93725490570068359 -0.30196079611778259 0.17647059261798859
vn 0.82745099067687988 -0.26274511218070984 0.49803921580314636
vn 0.71764707565307617 -0.57647061347961426 0.38823530077934265
vn 0.74117648601531982 -0.64705884456634521 0.16078431904315948
vn 0.77254903316497803 -0.63137257099151611 -0.043137256056070328
vn -0.050980392843484879 -0.99215686321258545 0.098039217293262482
vn -0.058823529630899429 0.9843137264251709 0.16862745583057404
vn 0.13725490868091583 0.9843137264251709 0.10588235408067703
vn -0.027450980618596077 1 -0.0039215688593685627
vn -0.9529411792755127 0.019607843831181526 0.30196079611778259
vn -0.96078431606292725 -0.11372549086809158 0.24705882370471954
vn -0.94509804248809814 0.16862745583057404 0.29411765933036804
vn -0.91372549533843994 0.35686275362968445 0.20000000298023224
vn -0.29411765933036804 0.3333333432674408 0.89803922176361084
f 1/1/1 2/2/2 3/3/3
f 4/4/4 1/1/1 3/3/3
f 5/5/5 4/4/4 3/3/3
f 6/6/6 7/7/7 8/8/8
f 9/9/9 10/10/10 11/11/11
f 12/12/12 10/10/10 9/9/9
f 13/13/13 14/14/14 15/15/15
f 16/16/16 13/13/13 15/15/15
f 16/16/16 15/15/15 17/17/17
f 18/18/18 16/16/16 17/17/17
f 19/19/19 18/18/18 17/17/17
f 17/17/17 20/20/20 19/19/19
f 21/21/21 20/20/20 17/17/17
f 17/17/17 15/15/15 21/21/21
f 22/22/22 23/23/23 24/24/24
f 25/25/25 4/4/4 5/5/5
f 26/26/26 27/27/27 28/28/28
f 29/29/29 26/26/26 28/28/28
f 29/29/29 28/28/28 30/30/30
f 31/31/31 29/29/29 30/30/30
f 32/32/32 31/31/31 30/30/30
f 30/30/30 33/33/33 34/34/34
f 32/32/32 30/30/30 34/34/34
f 35/35/35 32/32/32 34/34/34
f 36/36/36 34/34/34 33/33/33
f 35/35/35 34/34/34 36/36/36
f 37/37/37 35/35/35 36/36/36
f 37/37/37 36/36/36 38/38/38
f 39/39/39 4/4/4 40/40/40
f 1/1/1 4/4/4 39/39/39
f 2/2/2 1/1/1 41/41/41
f 41/41/41 42/42/42 2/2/2
f 43/43/43 42/42/42 41/41/41
f 44/44/44 43/43/43 41/41/41
f 45/45/45 44/44/44 46/46/46
f 46/46/46 11/11/11 45/45/45
f 9/9/9 11/11/11 46/46/46
f 47/47/47 48/48/48 49/49/49
f 50/50/50 51/51/51 52/52/52
f 53/53/53 54/54/54 50/50/50
f 20/20/20 21/21/21 55/55/55
f 55/55/55 56/56/56 57/57/57
f 55/55/55 57/57/57 20/20/20
f 58/58/58 59/59/59 60/60/60
f 58/58/58 60/60/60 61/61/61
f 62/62/62 58/58/58 61/61/61
f 63/63/63 57/57/57 62/62/62
f 64/64/64 65/65/65 63/63/63
f 66/66/66 64/64/64 63/63/63
f 66/66/66 63/63/63 62/62/62
f 18/18/18 19/19/19 65/65/65
f 13/13/13 16/16/16 18/18/18
f 67/67/67 68/68/68 14/14/14
f 67/67/67 14/14/14 13/13/13
f 67/67/67 13/13/13 18/18/18
f 69/69/69 67/67/67 18/18/18
f 70/70/70 69/69/69 18/18/18
f 33/33/33 70/70/70 71/71/71
f 72/72/72 71/71/71 64/64/64
f 33/33/33 71/71/71 72/72/72
f 36/36/36 33/33/33 72/72/72
f 38/38/38 36/36/36 72/72/72
f 65/65/65 73/73/73 63/63/63
f 19/19/19 73/73/73 65/65/65
f 20/20/20 73/73/73 19/19/19
f 57/57/57 63/63/63 73/73/73
f 57/57/57 73/73/73 20/20/20
f 74/74/74 58/58/58 62/62/62
f 74/74/74 62/62/62 57/57/57
f 57/57/57 75/75/75 74/74/74
f 56/56/56 75/75/75 57/57/57
f 55/55/55 21/21/21 76/76/76
f 56/56/56 55/55/55 76/76/76
f 56/56/56 76/76/76 77/77/77
f 47/47/47 78/78/78 79/79/79
f 80/80/80 49/49/49 81/81/81
f 47/47/47 49/49/49 80/80/80
f 78/78/78 47/47/47 80/80/80
f 82/82/82 78/78/78 80/80/80
f 59/59/59 58/58/58 83/83/83
f 59/59/59 83/83/83 82/82/82
f 84/84/84 59/59/59 82/82/82
f 85/85/85 84/84/84 82/82/82
f 85/85/85 82/82/82 80/80/80
f 80/80/80 81/81/81 86/86/86
f 85/85/85 80/80/80 86/86/86
f 87/87/87 84/84/84 85/85/85
f 87/87/87 85/85/85 86/86/86
f 88/88/88 52/52/52 51/51/51
f 51/51/51 23/23/23 88/88/88
f 24/24/24 23/23/23 51/51/51
f 24/24/24 51/51/51 89/89/89
f 90/90/90 91/91/91 89/89/89
f 54/54/54 90/90/90 89/89/89
f 89/89/89 51/51/51 50/50/50
f 50/50/50 54/54/54 89/89/89
f 92/92/92 50/50/50 52/52/52
f 53/53/53 50/50/50 92/92/92
f 53/53/53 92/92/92 93/93/93
f 94/94/94 53/53/53 93/93/93
f 94/94/94 93/93/93 6/6/6
f 94/94/94 6/6/6 8/8/8
f 94/94/94 8/8/8 95/95/95
f 96/96/96 94/94/94 95/95/95
f 53/53/53 94/94/94 96/96/96
f 96/96/96 54/54/54 53/53/53
f 97/97/97 90/90/90 54/54/54
f 97/97/97 54/54/54 96/96/96
f 97/97/97 96/96/96 95/95/95
f 97/97/97 95/95/95 98/98/98
f 99/99/99 90/90/90 97/97/97
f 99/99/99 97/97/97 98/98/98
f 99/99/99 98/98/98 100/100/100
f 100/100/100 101/101/101 99/99/99
f 101/101/101 100/100/100 27/27/27
f 40/40/40 4/4/4 25/25/25
f 40/40/40 25/25/25 102/102/102
f 39/39/39 40/40/40 103/103/103
f 39/39/39 103/103/103 48/48/48
f 104/104/104 39/39/39 48/48/48
f 104/104/104 48/48/48 47/47/47
f 105/105/105 104/104/104 47/47/47
f 105/105/105 47/47/47 79/79/79
f 106/106/106 105/105/105 79/79/79
f 106/106/106 12/12/12 9/9/9
f 106/106/106 9/9/9 107/107/107
f 105/105/105 106/106/106 107/107/107
f 108/108/108 104/104/104 105/105/105
f 108/108/108 105/105/105 107/107/107
f 108/108/108 107/107/107 9/9/9
f 108/108/108 9/9/9 46/46/46
f 108/108/108 46/46/46 109/109/109
f 109/109/109 104/104/104 108/108/108
f 39/39/39 104/104/104 109/109/109
f 1/1/1 39/39/39 109/109/109
f 109/109/109 41/41/41 1/1/1
f 44/44/44 41/41/41 109/109/109
f 44/44/44 109/109/109 46/46/46
f 44/44/44 45/45/45 110/110/110
f 44/44/44 110/110/110 43/43/43
f 111/111/111 64/64/64 66/66/66
f 111/111/111 66/66/66 112/112/112
f 112/112/112 113/113/113 111/111/111
f 114/114/114 115/115/115 68/68/68
f 114/114/114 68/68/68 67/67/67
f 114/114/114 67/67/67 69/69/69
f 69/69/69 116/116/116 114/114/114
f 117/117/117 116/116/116 69/69/69
f 33/33/33 30/30/30 117/117/117
f 117/117/117 69/69/69 70/70/70
f 70/70/70 33/33/33 117/117/117
f 18/18/18 118/118/118 70/70/70
f 71/71/71 70/70/70 118/118/118
f 118/118/118 18/18/18 65/65/65
f 71/71/71 118/118/118 65/65/65
f 64/64/64 71/71/71 65/65/65
f 72/72/72 64/64/64 111/111/111
f 38/38/38 72/72/72 111/111/111
f 38/38/38 111/111/111 113/113/113
