# exported with NifSkope

mtllib screen2.mtl

# glare:0

g glare:0
usemtl Material.000001

v 33.050834655761719 0.53116250038146973 -0.16982817649841309
v 33.059898376464844 0.52935934066772461 -0.16998332738876343
v 33.069770812988281 0.52372837066650391 -0.17035460472106934
v 33.082809448242188 0.51278185844421387 -0.17103855311870575
v 33.094581604003906 0.49657440185546875 -0.17200486361980438
v 33.103527069091797 0.47795557975769043 -0.17308682203292847
v 33.104122161865234 0.47597503662109375 -0.17319968342781067
v 33.104660034179688 0.46864843368530273 -0.17360712587833405
v 33.103038787841797 -4.3118982315063477 -0.43727472424507141
v 33.102184295654297 -4.3196015357971191 -0.43769434094429016
v 33.098487854003906 -4.3318777084350586 -0.43834874033927917
v 33.079620361328125 -4.3648881912231445 -0.44005346298217773
v 33.06964111328125 -4.3742713928222656 -0.44050964713096619
v 33.064224243164063 -4.3773584365844727 -0.44064664840698242
v 33.050251007080078 -4.3798351287841797 -0.44069734215736389
v 33.091194152832031 -4.3489603996276855 -0.43924611806869507
v 26.496885299682617 -4.3798351287841797 -0.40040576457977295
v 26.498550415039063 0.53116250038146973 -0.12954325973987579
vt 0.011286572553217411 0.99425393342971802
vt 0.0099189542233943939 0.99388891458511353
vt 0.008428819477558136 0.9927489161491394
vt 0.0064606107771396637 0.99053281545639038
vt 0.0046837572008371353 0.98725128173828125
vt 0.0033327904529869556 0.9834820032119751
vt 0.0032428675331175327 0.98308098316192627
vt 0.0031612515449523926 0.98159784078598022
vt 0.0031612515449523926 0.013754129409790039
vt 0.0032897661440074444 0.012194633483886719
vt 0.0038472211454063654 0.0097092390060424805
vt 0.0066926442086696625 0.003026127815246582
vt 0.0081977173686027527 0.0011265277862548828
vt 0.0090148458257317543 0.00050145387649536133
vt 0.011123601347208023 0
vt 0.0049466351047158241 0.0062507987022399902
vt 0.99999994039535522 1.1920928955078125e-07
vt 0.99999994039535522 0.99425393342971802
vn -0.0061382097192108631 0.055071961134672165 -0.99846351146697998
vn -0.0061368383467197418 0.055071976035833359 -0.99846351146697998
vn -0.0061350883916020393 0.055076412856578827 -0.99846327304840088
vn -0.0061375373043119907 0.05507243424654007 -0.99846351146697998
vn -0.0061392229981720448 0.055071711540222168 -0.99846351146697998
vn -0.0062043112702667713 0.055033102631568909 -0.99846524000167847
vn -0.0061361407861113548 0.055072437971830368 -0.99846351146697998
vn -0.0061371936462819576 0.055072203278541565 -0.99846351146697998
vn -0.0061610126867890358 0.055071607232093811 -0.99846339225769043
vn -0.0061320476233959198 0.055071607232093811 -0.99846357107162476
vn -0.0061379438266158104 0.055071678012609482 -0.99846351146697998
vn -0.006135895848274231 0.055068094283342361 -0.99846374988555908
vn -0.0061318567022681236 0.055065494030714035 -0.99846392869949341
vn -0.0061389007605612278 0.055074173957109451 -0.99846339225769043
vn -0.0061386269517242908 0.055071711540222168 -0.99846351146697998
vn -0.0061387666501104832 0.05507165938615799 -0.99846351146697998
vn -0.0061387792229652405 0.055071607232093811 -0.99846351146697998
vn -0.0061387782916426659 0.055071607232093811 -0.99846351146697998
f 9/9/9 10/10/10 8/8/8
f 8/8/8 10/10/10 11/11/11
f 13/13/13 14/14/14 12/12/12
f 14/14/14 15/15/15 12/12/12
f 12/12/12 15/15/15 16/16/16
f 16/16/16 15/15/15 11/11/11
f 11/11/11 15/15/15 8/8/8
f 15/15/15 1/1/1 8/8/8
f 8/8/8 1/1/1 4/4/4
f 4/4/4 1/1/1 3/3/3
f 1/1/1 2/2/2 3/3/3
f 5/5/5 6/6/6 4/4/4
f 6/6/6 7/7/7 4/4/4
f 4/4/4 7/7/7 8/8/8
f 15/15/15 17/17/17 1/1/1
f 1/1/1 17/17/17 18/18/18
