# exported with NifSkope

mtllib Walkman.mtl

# Walkman

g Walkman
usemtl Material.000001

v 11.3984375 7.34375 -41.5
v 11.34375 8.03125 -41.53125
v 11.03125 7.63671875 -41.53125
v 11.7109375 7.7421875 -41.53125
v 11.3984375 7.3359375 -41.75
v 11.34375 8.0234375 -41.78125
v 11.7109375 7.734375 -41.78125
v 11.03125 7.62890625 -41.78125
v 11.7109375 7.7421875 -41.53125
v 11.3984375 7.3359375 -41.75
v 11.7109375 7.734375 -41.78125
v 11.3984375 7.34375 -41.5
v 11.03125 7.62890625 -41.78125
v 11.3984375 7.34375 -41.5
v 11.03125 7.63671875 -41.53125
v 11.3984375 7.3359375 -41.75
v 11.34375 8.03125 -41.53125
v 11.7109375 7.734375 -41.78125
v 11.34375 8.0234375 -41.78125
v 11.7109375 7.7421875 -41.53125
v 11.7109375 7.71484375 -42.375
v 11.390625 7.3125 -42.625
v 11.7109375 7.70703125 -42.625
v 11.390625 7.3203125 -42.375
v 11.390625 7.3125 -42.625
v 11.34375 8 -42.65625
v 11.7109375 7.70703125 -42.625
v 11.03125 7.6015625 -42.625
v 11.390625 7.3203125 -42.375
v 11.34375 8.0078125 -42.375
v 11.03125 7.609375 -42.375
v 11.7109375 7.71484375 -42.375
v 11.34375 8 -42.65625
v 11.7109375 7.71484375 -42.375
v 11.7109375 7.70703125 -42.625
v 11.34375 8.0078125 -42.375
v 11.03125 7.6015625 -42.625
v 11.390625 7.3125 -42.625
v 11.34375 8.046875 -40.96875
v 11.703125 7.78125 -40.46875
v 11.703125 7.765625 -40.96875
v 11.3515625 8.0625 -40.46875
v 11.3828125 7.37109375 -40.96875
v 11.03125 7.65234375 -40.96875
v 11.3828125 7.38671875 -40.4375
v 11.3515625 8.0625 -40.46875
v 11.03125 7.66796875 -40.46875
v 11.703125 7.78125 -40.46875
v 11.03125 7.65234375 -40.96875
v 11.3828125 7.38671875 -40.4375
v 11.03125 7.66796875 -40.46875
v 11.3828125 7.37109375 -40.96875
v 11.703125 7.78125 -40.46875
v 11.3828125 7.37109375 -40.96875
v 11.703125 7.765625 -40.96875
v 11.3828125 7.38671875 -40.4375
v 11.703125 7.79296875 -40.09375
v 11.03125 7.6796875 -40.09375
v 11.3515625 8.0703125 -40.09375
v 11.3828125 7.39453125 -40.09375
v 11.703125 7.80859375 -39.59375
v 11.03125 7.69140625 -39.59375
v 11.390625 7.41015625 -39.59375
v 11.3515625 8.0859375 -39.59375
v 11.703125 7.80859375 -39.59375
v 11.3828125 7.39453125 -40.09375
v 11.703125 7.79296875 -40.09375
v 11.390625 7.41015625 -39.59375
v 11.3515625 8.0859375 -39.59375
v 11.703125 7.79296875 -40.09375
v 11.3515625 8.0703125 -40.09375
v 11.703125 7.80859375 -39.59375
v 11.03125 7.6796875 -40.09375
v 11.390625 7.41015625 -39.59375
v 11.03125 7.69140625 -39.59375
v 11.3828125 7.39453125 -40.09375
v 9.609375 9.34375 -39.21875
v 8.8515625 8.390625 -39.1875
v 10.3984375 7.16015625 -39.15625
v 10.859375 7.35546875 -39.15625
v 11.34375 7.9609375 -39.1875
v 12.2578125 8.8828125 -39.21875
v 11.34375 7.9609375 -39.1875
v 12.1484375 8.96875 -39.21875
v 11.4453125 7.875 -39.1875
v 8.8828125 8.3203125 -40.6875
v 8.7890625 8.1953125 -40.59375
v 8.53125 8.390625 -40.90625
v 8.6328125 8.5078125 -41.03125
v 6.0625 10.5546875 -41.09375
v 5.96484375 10.4375 -40.96875
v 5.75390625 10.6171875 -40.65625
v 6.0625 10.5546875 -41.09375
v 5.84765625 10.734375 -40.75
v 10.7578125 6.84765625 -45.28125
v 10.7578125 6.86328125 -44.6875
v 10.6796875 6.76171875 -44.6875
v 10.671875 6.68359375 -47.34375
v 12.328125 8.7578125 -47.40625
v 12.2421875 8.703125 -45.3125
v 12.2421875 8.703125 -45.3125
v 12.34375 9 -39.0625
v 12.2578125 8.8828125 -39.21875
v 12.328125 8.7578125 -47.40625
v 10.390625 7 -44.5
v 10.5234375 7.03515625 -45.28125
v 10.84375 7.17578125 -45.28125
v 10.859375 7.35546875 -39.15625
v 10.3984375 7.16015625 -39.15625
v 10.46875 7.1015625 -44.5
v 10.390625 7 -44.5
v 5.75390625 10.6640625 -39.125
v 8.7890625 8.2421875 -39.0625
v 10.390625 7 -44.5
v 10.3984375 7.16015625 -39.15625
v 8.8515625 8.390625 -39.1875
v 5.84765625 10.734375 -40.75
v 5.83984375 10.5390625 -47.4375
v 10.671875 6.68359375 -47.34375
v 10.6796875 6.76171875 -44.6875
v 7.4921875 12.6171875 -47.5
v 5.83984375 10.5390625 -47.4375
v 5.84765625 10.734375 -40.75
v 7.5078125 12.859375 -39.1875
v 5.75390625 10.6640625 -39.125
v 5.75390625 10.6171875 -40.65625
v 10.859375 7.35546875 -39.15625
v 10.84375 7.17578125 -45.28125
v 12.1328125 8.7890625 -45.34375
v 10.5234375 7.03515625 -45.28125
v 10.7578125 6.86328125 -44.6875
v 10.7578125 6.84765625 -45.28125
v 10.46875 7.1015625 -44.5
v 12.2578125 8.8828125 -39.21875
v 12.2421875 8.703125 -45.3125
v 10.1875 8.8828125 -39.0625
v 11.4453125 7.87890625 -39.03125
v 7.5078125 12.859375 -39.1875
v 9.65625 9.046875 -39.0625
v 9.3046875 8.8828125 -39.0625
v 12.2421875 8.703125 -45.3125
v 12.1328125 8.7890625 -45.34375
v 10.84375 7.17578125 -45.28125
v 7.4921875 12.6171875 -47.5
v 9.3046875 8.8828125 -39.0625
v 8.7890625 8.2421875 -39.0625
v 8.890625 8.359375 -39.1875
v 9.3046875 8.8828125 -39.21875
v 9.65625 9.0390625 -39.21875
v 9.65625 9.046875 -39.0625
v 10.1875 8.8828125 -39.21875
v 10.1875 8.8828125 -39.0625
v 11.4453125 7.87890625 -39.03125
v 11.4453125 7.875 -39.1875
v 11.4453125 7.875 -39.1875
v 12.2578125 8.8828125 -39.21875
v 12.328125 8.7578125 -47.40625
v 7.4921875 12.6171875 -47.5
v 8.890625 8.359375 -39.1875
vt 0.71875 1.92236328125
vt 0.78955078125 1.98681640625
vt 0.71875 1.98681640625
vt 0.78955078125 1.92236328125
vt -0.2802734375 1.92236328125
vt -0.210205078125 1.98681640625
vt -0.210205078125 1.92236328125
vt -0.2802734375 1.98681640625
vt 0.62841796875 1.86865234375
vt 0.6982421875 1.9033203125
vt 0.62841796875 1.9033203125
vt 0.6982421875 1.86865234375
vt -0.315185546875 1.98681640625
vt -0.2802734375 1.92236328125
vt -0.2802734375 1.98681640625
vt -0.315185546875 1.92236328125
vt 0.71875 1.98681640625
vt 0.6845703125 1.92236328125
vt 0.6845703125 1.98681640625
vt 0.71875 1.92236328125
vt 0.78955078125 1.92236328125
vt 0.71875 1.8876953125
vt 0.78955078125 1.8876953125
vt 0.71875 1.92236328125
vt -0.2802734375 1.92236328125
vt -0.210205078125 1.98681640625
vt -0.210205078125 1.92236328125
vt -0.2802734375 1.98681640625
vt -0.2802734375 1.92236328125
vt -0.210205078125 1.98681640625
vt -0.2802734375 1.98681640625
vt -0.210205078125 1.92236328125
vt -0.315185546875 1.98681640625
vt -0.2802734375 1.92236328125
vt -0.315185546875 1.92236328125
vt -0.2802734375 1.98681640625
vt -0.315185546875 1.98681640625
vt -0.315185546875 1.92236328125
vt -0.40478515625 1.9228515625
vt -0.331787109375 1.98779296875
vt -0.40478515625 1.98779296875
vt -0.331787109375 1.9228515625
vt -0.477294921875 1.98779296875
vt -0.477294921875 1.9228515625
vt -0.477294921875 1.98779296875
vt -0.40478515625 1.9228515625
vt -0.477294921875 1.9228515625
vt -0.40478515625 1.98779296875
vt -0.40478515625 1.9228515625
vt -0.331787109375 1.98779296875
vt -0.331787109375 1.9228515625
vt -0.40478515625 1.98779296875
vt 0.43359375 1.98681640625
vt 0.505859375 1.9140625
vt 0.505859375 1.98681640625
vt 0.43359375 1.9140625
vt -0.477294921875 1.98779296875
vt -0.40478515625 1.9228515625
vt -0.477294921875 1.9228515625
vt -0.40478515625 1.98779296875
vt 0.52197265625 1.98779296875
vt 0.59423828125 1.9228515625
vt 0.59423828125 1.98779296875
vt 0.52197265625 1.9228515625
vt 0.66845703125 1.39208984375
vt 0.74072265625 1.319091796875
vt 0.74072265625 1.39208984375
vt 0.66845703125 1.319091796875
vt 0.59423828125 1.9228515625
vt 0.66748046875 1.98779296875
vt 0.66748046875 1.9228515625
vt 0.59423828125 1.98779296875
vt -0.331787109375 1.9228515625
vt -0.40478515625 1.98779296875
vt -0.40478515625 1.9228515625
vt -0.331787109375 1.98779296875
vt 0.01509857177734375 1.440185546875
vt 0.09356689453125 1.440185546875
vt 0.09356689453125 1.568359375
vt 0.065185546875 1.58349609375
vt 0.01509857177734375 1.58349609375
vt 0.0036983489990234375 1.9833984375
vt 0.0124969482421875 1.8994140625
vt 0.0124969482421875 1.9833984375
vt 0.0036983489990234375 1.8994140625
vt 0.837890625 1.267578125
vt 0.82666015625 1.261962890625
vt 0.84765625 1.24169921875
vt 0.859375 1.24658203125
vt 0.8603515625 1.029296875
vt 0.84765625 1.029296875
vt 0.82666015625 1.0116958618164063
vt 0.859375 1.023895263671875
vt 0.837890625 1.0062980651855469
vt 0.9208984375 1.28857421875
vt 0.9208984375 1.251953125
vt 0.92919921875 1.251953125
vt 0.93017578125 1.421875
vt 0.7578125 1.4228515625
vt 0.76708984375 1.2890625
vt 0.14208984375 1.4208984375
vt 0.54638671875 1.411376953125
vt 0.53662109375 1.4208984375
vt 0.00859832763671875 1.411376953125
vt 0.978515625 1.35498046875
vt 0.9697265625 1.4052734375
vt 0.9462890625 1.4052734375
vt 0.9462890625 1.0102996826171875
vt 0.978515625 1.0102996826171875
vt 0.9208984375 1.2239990234375
vt 0.92919921875 1.2239990234375
vt 0.72705078125 1.0116958618164063
vt 0.72705078125 1.261962890625
vt 0.42138671875 1.81494140625
vt 0.0767822265625 1.81494140625
vt 0.0767822265625 1.68701171875
vt 0.173583984375 1.439697265625
vt 0.60498046875 1.439697265625
vt 0.60498046875 1.83935546875
vt 0.43505859375 1.83935546875
vt 0.9814453125 1.97802734375
vt 0.81005859375 1.97802734375
vt 0.81005859375 1.54638671875
vt 0.9814453125 1.440185546875
vt 0.80029296875 1.440185546875
vt 0.80029296875 1.53955078125
vt 0.0124969482421875 1.849609375
vt 0.406982421875 1.849609375
vt 0.406982421875 1.9833984375
vt 0.87744140625 1.060089111328125
vt 0.8974609375 1.0233917236328125
vt 0.8974609375 1.060089111328125
vt 0.87255859375 1.009796142578125
vt 0.0124969482421875 1.9921875
vt 0.406982421875 1.9921875
vt 0.63916015625 1.307373046875
vt 0.63916015625 1.411376953125
vt 0.5458984375 1.0116958618164063
vt 0.65185546875 1.273681640625
vt 0.67333984375 1.261962890625
vt 0.8974609375 1.2138671875
vt 0.88818359375 1.2138671875
vt 0.88818359375 1.080078125
vt 0.00839996337890625 1.0116958618164063
vt 0.038482666015625 1.76611328125
vt 0.038482666015625 1.82958984375
vt 0.029296875 1.8193359375
vt 0.029296875 1.76611328125
vt 0.029296875 1.7470703125
vt 0.038482666015625 1.7470703125
vt 0.029296875 1.72802734375
vt 0.038482666015625 1.72802734375
vt 0.038482666015625 1.6044921875
vt 0.029296875 1.6044921875
vt 0.63916015625 1.4208984375
vt 0.5556640625 1.4208984375
vt 0.77685546875 1.83935546875
vt 0.77685546875 1.439697265625
vt 0.736328125 1.2724609375
vn -0.27843138575553894 -0.32549020648002625 0.90588235855102539
vn 0.27843138575553894 0.37254902720451355 0.88235294818878174
vn 0.0039215688593685627 0.027450980618596077 1
vn 0.57647061347961426 -0.43529412150382996 0.69411766529083252
vn 0.37254902720451355 -0.32549020648002625 -0.87450981140136719
vn -0.0039215688593685627 -0.027450980618596077 -1
vn 0.43529412150382996 0.52941179275512695 -0.72549021244049072
vn -0.44313725829124451 -0.56862747669219971 -0.69411766529083252
vn 0.78039216995239258 -0.62352943420410156 0.019607843831181526
vn 0.37254902720451355 -0.32549020648002625 -0.87450981140136719
vn 0.78039216995239258 -0.62352943420410156 0.019607843831181526
vn 0.20784313976764679 -0.13725490868091583 0.9686274528503418
vn -0.62352943420410156 -0.78039216995239258 0.019607843831181526
vn -0.27843138575553894 -0.32549020648002625 0.90588235855102539
vn -0.62352943420410156 -0.78039216995239258 0.027450980618596077
vn -0.15294118225574493 -0.21568627655506134 -0.96078431606292725
vn 0.27843138575553894 0.37254902720451355 0.88235294818878174
vn 0.62352943420410156 0.78039216995239258 -0.027450980618596077
vn 0.15294118225574493 0.16078431904315948 -0.97647058963775635
vn 0.62352943420410156 0.78039216995239258 -0.027450980618596077
vn 1 0.074509806931018829 -0.0039215688593685627
vn 0.37254902720451355 -0.32549020648002625 -0.87450981140136719
vn 0.78039216995239258 -0.62352943420410156 0.019607843831181526
vn -0.08235294371843338 -0.45882353186607361 0.88235294818878174
vn 0.37254902720451355 -0.32549020648002625 -0.87450981140136719
vn 0.27843138575553894 0.32549020648002625 -0.90588235855102539
vn -0.0039215688593685627 -0.027450980618596077 -1
vn -0.44313725829124451 -0.57647061347961426 -0.69411766529083252
vn -0.27843138575553894 -0.32549020648002625 0.90588235855102539
vn 0.0039215688593685627 0.027450980618596077 1
vn -0.27843138575553894 -0.32549020648002625 0.90588235855102539
vn 0.57647061347961426 -0.43529412150382996 0.69411766529083252
vn 0.27843138575553894 0.32549020648002625 -0.90588235855102539
vn 1 0.074509806931018829 -0.0039215688593685627
vn 0.62352943420410156 0.78039216995239258 -0.027450980618596077
vn 0.15294118225574493 0.21568627655506134 0.96078431606292725
vn -0.62352943420410156 -0.78039216995239258 0.027450980618596077
vn 0.45098039507865906 -0.89019608497619629 0.027450980618596077
vn 0.44313725829124451 0.52941179275512695 -0.72549021244049072
vn 1 0.058823529630899429 -0.0039215688593685627
vn 0.44313725829124451 0.52941179275512695 -0.72549021244049072
vn 0.27843138575553894 0.37254902720451355 0.88235294818878174
vn 0.58431375026702881 -0.48235294222831726 -0.65490198135375977
vn -0.56078433990478516 -0.70980393886566162 -0.42745098471641541
vn -0.44313725829124451 -0.52941179275512695 0.72549021244049072
vn 0.0039215688593685627 0.027450980618596077 1
vn 0.0039215688593685627 0.027450980618596077 1
vn 0.56078433990478516 0.70980393886566162 0.42745098471641541
vn -0.62352943420410156 -0.78039216995239258 0.027450980618596077
vn -0.44313725829124451 -0.52941179275512695 0.72549021244049072
vn -0.62352943420410156 -0.78039216995239258 0.027450980618596077
vn -0.27843138575553894 -0.37254902720451355 -0.88235294818878174
vn 1 0.058823529630899429 -0.0039215688593685627
vn 0.58431375026702881 -0.48235294222831726 -0.65490198135375977
vn 0.82745099067687988 0.027450980618596077 -0.55294120311737061
vn 0.38823530077934265 -0.27843138575553894 0.88235294818878174
vn 0.43529412150382996 0.52941179275512695 -0.72549021244049072
vn -0.44313725829124451 -0.57647061347961426 -0.68627452850341797
vn -0.0039215688593685627 -0.027450980618596077 -1
vn 0.70980393886566162 -0.58431375026702881 -0.38823530077934265
vn 0.58431375026702881 -0.44313725829124451 0.67843139171600342
vn 0.0039215688593685627 0.027450980618596077 1
vn -0.55294120311737061 -0.68627452850341797 0.46666666865348816
vn 0.56078433990478516 0.70980393886566162 0.42745098471641541
vn 0.58431375026702881 -0.44313725829124451 0.67843139171600342
vn 0.78039216995239258 -0.62352943420410156 0.019607843831181526
vn 0.3803921639919281 -0.3333333432674408 -0.86666667461395264
vn 0.78039216995239258 -0.62352943420410156 0.019607843831181526
vn 0.62352943420410156 0.78039216995239258 -0.027450980618596077
vn 0.43529412150382996 0.52941179275512695 -0.72549021244049072
vn 0.62352943420410156 0.78039216995239258 -0.027450980618596077
vn 0.27843138575553894 0.37254902720451355 0.88235294818878174
vn -0.44313725829124451 -0.57647061347961426 -0.68627452850341797
vn -0.62352943420410156 -0.78039216995239258 0.027450980618596077
vn -0.27843138575553894 -0.32549020648002625 0.90588235855102539
vn -0.62352943420410156 -0.78039216995239258 0.027450980618596077
vn 0.0039215688593685627 0.027450980618596077 1
vn -0.62352943420410156 -0.78039216995239258 0.098039217293262482
vn 0.0039215688593685627 0.027450980618596077 1
vn 0.3490196168422699 -0.80392158031463623 0.47450980544090271
vn 0.0039215688593685627 0.027450980618596077 1
vn -0.60784316062927246 -0.77254903316497803 -0.18431372940540314
vn 0.78039216995239258 -0.62352943420410156 -0.011764706112444401
vn 0.75686275959014893 -0.65490198135375977 0.011764706112444401
vn 0.70980393886566162 -0.58431375026702881 -0.3960784375667572
vn 0.61568629741668701 -0.74117648601531982 -0.26274511218070984
vn -0.59215688705444336 -0.80392158031463623 0.019607843831181526
vn -0.49019607901573181 -0.70980393886566162 -0.5058823823928833
vn -0.28627452254295349 -0.5058823823928833 -0.81176471710205078
vn -0.40392157435417175 -0.4117647111415863 -0.81960785388946533
vn -0.62352943420410156 -0.75686275959014893 -0.17647059261798859
vn -0.63137257099151611 -0.77254903316497803 0.011764706112444401
vn -0.40392157435417175 -0.4117647111415863 -0.81960785388946533
vn -0.96078431606292725 -0.27058824896812439 0.011764706112444401
vn 0.78823530673980713 -0.60784316062927246 0.027450980618596077
vn 0.77254903316497803 0.62352943420410156 0.08235294371843338
vn 0.76470589637756348 -0.60784316062927246 0.21568627655506134
vn -0.364705890417099 -0.92941176891326904 0.027450980618596077
vn 0.26274511218070984 -0.23921568691730499 -0.93725490570068359
vn 0.78039216995239258 -0.61568629741668701 0.10588235408067703
vn 0.78039216995239258 -0.62352943420410156 0.019607843831181526
vn 0.64705884456634521 0.74117648601531982 0.19215686619281769
vn 0.72549021244049072 -0.58431375026702881 -0.3490196168422699
vn 0.70980393886566162 0.70980393886566162 -0.019607843831181526
vn -0.57647061347961426 -0.81176471710205078 0.027450980618596077
vn 0.94509804248809814 0.24705882370471954 0.22352941334247589
vn 0.74901962280273438 -0.66274511814117432 0.043137256056070328
vn 0.3490196168422699 -0.80392158031463623 0.47450980544090271
vn 0.23921568691730499 -0.5215686559677124 0.81960785388946533
vn 0.38823530077934265 -0.28627452254295349 0.87450981140136719
vn 0.3960784375667572 -0.92156863212585449 0.035294119268655777
vn -0.58431375026702881 -0.30980393290519714 0.74901962280273438
vn -0.5215686559677124 -0.69411766529083252 0.49019607901573181
vn -0.57647061347961426 -0.81176471710205078 0.027450980618596077
vn -0.59215688705444336 -0.73333334922790527 0.34117648005485535
vn -0.62352943420410156 -0.78039216995239258 0.027450980618596077
vn -0.62352943420410156 -0.78039216995239258 0.027450980618596077
vn -0.5372549295425415 -0.69411766529083252 -0.48235294222831726
vn -0.27843138575553894 -0.73333334922790527 -0.62352943420410156
vn -0.23137255012989044 -0.9686274528503418 0.11372549086809158
vn -0.78039216995239258 0.62352943420410156 -0.019607843831181526
vn -0.72549021244049072 -0.5058823823928833 -0.46666666865348816
vn -0.78039216995239258 0.62352943420410156 -0.019607843831181526
vn -0.59215688705444336 0.49019607901573181 0.63921570777893066
vn -0.58431375026702881 -0.30980393290519714 0.74901962280273438
vn -0.66274511814117432 -0.74901962280273438 0.011764706112444401
vn 0.67058825492858887 -0.51372551918029785 0.52941179275512695
vn 0.74901962280273438 -0.66274511814117432 0.019607843831181526
vn 0.69411766529083252 -0.71764707565307617 0.019607843831181526
vn 0.60784316062927246 0.77254903316497803 0.18431372940540314
vn 0.77254903316497803 0.62352943420410156 0.08235294371843338
vn 0.78823530673980713 -0.60784316062927246 0.058823529630899429
vn 0.72549021244049072 0.62352943420410156 0.30196079611778259
vn -0.60784316062927246 -0.77254903316497803 -0.18431372940540314
vn -0.62352943420410156 -0.78039216995239258 0.027450980618596077
vn -0.011764706112444401 0.011764706112444401 1
vn -0.050980392843484879 -0.17647059261798859 0.9843137264251709
vn 0.3960784375667572 0.89803922176361084 0.18431372940540314
vn -0.0039215688593685627 -0.027450980618596077 1
vn 0.011764706112444401 0.011764706112444401 1
vn 0.0039215688593685627 0.027450980618596077 1
vn 0.69411766529083252 -0.71764707565307617 0.043137256056070328
vn 0.38823530077934265 -0.89019608497619629 0.23137255012989044
vn 0.011764706112444401 1 -0.027450980618596077
vn 0.011764706112444401 0.011764706112444401 1
vn -0.57647061347961426 -0.81960785388946533 0.027450980618596077
vn 0.78039216995239258 -0.62352943420410156 0.019607843831181526
vn 0.66274511814117432 -0.74901962280273438 0.019607843831181526
vn 0.12156862765550613 -0.99215686321258545 0.027450980618596077
vn -0.0039215688593685627 -0.027450980618596077 1
vn -0.54509806632995605 -0.83529412746429443 0.027450980618596077
vn -0.011764706112444401 0.011764706112444401 1
vn -0.050980392843484879 -0.17647059261798859 0.9843137264251709
vn -0.62352943420410156 -0.78039216995239258 0.019607843831181526
vn 0.78039216995239258 -0.62352943420410156 0.019607843831181526
vn 0.364705890417099 -0.31764706969261169 -0.87450981140136719
vn 0.23137255012989044 -0.21568627655506134 -0.94509804248809814
vn -0.72549021244049072 0.56862747669219971 -0.3960784375667572
vn 0.78039216995239258 -0.62352943420410156 0.019607843831181526
f 1/1/1 2/2/2 3/3/3
f 2/2/2 1/1/1 4/4/4
f 5/5/5 6/6/6 7/7/7
f 8/8/8 6/6/6 5/5/5
f 9/9/9 10/10/10 11/11/11
f 12/12/12 10/10/10 9/9/9
f 13/13/13 14/14/14 15/15/15
f 16/16/16 14/14/14 13/13/13
f 17/17/17 18/18/18 19/19/19
f 20/20/20 18/18/18 17/17/17
f 21/21/21 22/22/22 23/23/23
f 24/24/24 22/22/22 21/21/21
f 25/25/25 26/26/26 27/27/27
f 28/28/28 26/26/26 25/25/25
f 29/29/29 30/30/30 31/31/31
f 32/32/32 30/30/30 29/29/29
f 33/33/33 34/34/34 35/35/35
f 36/36/36 34/34/34 33/33/33
f 37/37/37 29/29/29 31/31/31
f 38/38/38 29/29/29 37/37/37
f 39/39/39 40/40/40 41/41/41
f 42/42/42 40/40/40 39/39/39
f 43/43/43 39/39/39 41/41/41
f 44/44/44 39/39/39 43/43/43
f 45/45/45 46/46/46 47/47/47
f 48/48/48 46/46/46 45/45/45
f 49/49/49 50/50/50 51/51/51
f 52/52/52 50/50/50 49/49/49
f 53/53/53 54/54/54 55/55/55
f 56/56/56 54/54/54 53/53/53
f 57/57/57 58/58/58 59/59/59
f 60/60/60 58/58/58 57/57/57
f 61/61/61 62/62/62 63/63/63
f 64/64/64 62/62/62 61/61/61
f 65/65/65 66/66/66 67/67/67
f 68/68/68 66/66/66 65/65/65
f 69/69/69 70/70/70 71/71/71
f 72/72/72 70/70/70 69/69/69
f 73/73/73 74/74/74 75/75/75
f 76/76/76 74/74/74 73/73/73
f 77/77/77 78/78/78 79/79/79
f 77/77/77 79/79/79 80/80/80
f 77/77/77 80/80/80 81/81/81
f 82/82/82 83/83/83 84/84/84
f 85/85/85 83/83/83 82/82/82
f 86/86/86 87/87/87 88/88/88
f 88/88/88 89/89/89 86/86/86
f 88/88/88 90/90/90 89/89/89
f 91/91/91 90/90/90 88/88/88
f 92/92/92 93/93/93 91/91/91
f 94/94/94 93/93/93 92/92/92
f 95/95/95 96/96/96 97/97/97
f 95/95/95 97/97/97 98/98/98
f 95/95/95 98/98/98 99/99/99
f 95/95/95 99/99/99 100/100/100
f 101/101/101 102/102/102 103/103/103
f 104/104/104 102/102/102 101/101/101
f 105/105/105 106/106/106 107/107/107
f 105/105/105 107/107/107 108/108/108
f 105/105/105 108/108/108 109/109/109
f 110/110/110 97/97/97 96/96/96
f 111/111/111 97/97/97 110/110/110
f 87/87/87 91/91/91 88/88/88
f 92/92/92 91/91/91 87/87/87
f 87/87/87 112/112/112 92/92/92
f 113/113/113 112/112/112 87/87/87
f 114/114/114 115/115/115 116/116/116
f 114/114/114 116/116/116 117/117/117
f 114/114/114 117/117/117 118/118/118
f 114/114/114 118/118/118 119/119/119
f 114/114/114 119/119/119 120/120/120
f 121/121/121 122/122/122 123/123/123
f 123/123/123 124/124/124 121/121/121
f 125/125/125 124/124/124 123/123/123
f 125/125/125 123/123/123 126/126/126
f 83/83/83 127/127/127 128/128/128
f 128/128/128 84/84/84 83/83/83
f 129/129/129 84/84/84 128/128/128
f 130/130/130 131/131/131 132/132/132
f 133/133/133 131/131/131 130/130/130
f 134/134/134 129/129/129 135/135/135
f 84/84/84 129/129/129 134/134/134
f 136/136/136 137/137/137 102/102/102
f 136/136/136 102/102/102 138/138/138
f 138/138/138 139/139/139 136/136/136
f 140/140/140 139/139/139 138/138/138
f 140/140/140 138/138/138 112/112/112
f 140/140/140 112/112/112 113/113/113
f 141/141/141 142/142/142 143/143/143
f 143/143/143 132/132/132 141/141/141
f 130/130/130 132/132/132 143/143/143
f 104/104/104 138/138/138 102/102/102
f 144/144/144 138/138/138 104/104/104
f 145/145/145 146/146/146 147/147/147
f 145/145/145 147/147/147 148/148/148
f 145/145/145 148/148/148 149/149/149
f 150/150/150 145/145/145 149/149/149
f 151/151/151 150/150/150 149/149/149
f 152/152/152 150/150/150 151/151/151
f 151/151/151 153/153/153 152/152/152
f 154/154/154 153/153/153 151/151/151
f 102/102/102 155/155/155 156/156/156
f 137/137/137 155/155/155 102/102/102
f 157/157/157 118/118/118 158/158/158
f 119/119/119 118/118/118 157/157/157
f 87/87/87 159/159/159 113/113/113
f 86/86/86 159/159/159 87/87/87
